<?xml version="1.0" encoding="UTF-8" standalone="no"?>
<!-- Created with Inkscape (http://www.inkscape.org/) -->

<svg
   width="50mm"
   height="50mm"
   viewBox="0 0 50 50"
   version="1.1"
   id="svg1"
   inkscape:version="1.3.2 (091e20e, 2023-11-25, custom)"
   sodipodi:docname="star_handdrawn.svg"
   xmlns:inkscape="http://www.inkscape.org/namespaces/inkscape"
   xmlns:sodipodi="http://sodipodi.sourceforge.net/DTD/sodipodi-0.dtd"
   xmlns="http://www.w3.org/2000/svg"
   xmlns:svg="http://www.w3.org/2000/svg">
  <sodipodi:namedview
     id="namedview1"
     pagecolor="#ffffff"
     bordercolor="#111111"
     borderopacity="1"
     inkscape:showpageshadow="0"
     inkscape:pageopacity="0"
     inkscape:pagecheckerboard="1"
     inkscape:deskcolor="#d1d1d1"
     inkscape:document-units="mm"
     inkscape:zoom="4.0872334"
     inkscape:cx="123.31079"
     inkscape:cy="115.11454"
     inkscape:window-width="2560"
     inkscape:window-height="1361"
     inkscape:window-x="2391"
     inkscape:window-y="-9"
     inkscape:window-maximized="1"
     inkscape:current-layer="layer1" />
  <defs
     id="defs1" />
  <g
     inkscape:label="Ebene 1"
     inkscape:groupmode="layer"
     id="layer1">
    <path
       style="fill:none;stroke:#ffffff;stroke-width:3;stroke-linecap:butt;stroke-linejoin:miter;stroke-dasharray:none;stroke-opacity:1"
       d="M 6.6807018,47.207892 C 9.9446944,42.55841 16.342619,30.8588 23.141624,27.084214 c 2.019252,-1.121023 8.526767,-3.318997 12.278229,-4.456921 0.246634,-0.07482 3.553788,-1.03422 4.047768,-1.215525 0.776321,-0.284929 1.523096,-0.645419 2.293734,-0.945406 0.848754,-0.330397 1.703009,-0.647222 2.563585,-0.945408 0.309415,-0.107218 0.648578,-0.129813 0.94448,-0.270116 0.56467,-0.267738 1.0678,-0.651089 1.619107,-0.945409 0.125496,-0.06699 0.269851,-0.09005 0.40478,-0.135049 0.134918,-0.04502 0.269847,-0.09005 0.404775,-0.13505"
       id="path2" />
    <path
       style="fill:none;stroke:#ffffff;stroke-width:3;stroke-linecap:butt;stroke-linejoin:miter;stroke-dasharray:none;stroke-opacity:1"
       d="M 29.632454,2.1106726 C 19.871864,38.080861 24.774119,20.356735 18.71536,41.964503 c -0.292795,1.050998 -0.585591,2.101991 -0.878386,3.15299 -0.04183,0.210201 -0.07376,0.422637 -0.125476,0.630597 -0.264005,1.061375 -0.250969,0.589638 -0.250969,1.387318"
       id="path4" />
    <path
       style="fill:none;stroke:#ffffff;stroke-width:3;stroke-linecap:butt;stroke-linejoin:miter;stroke-dasharray:none;stroke-opacity:1"
       d="m 7.4991934,19.522302 c 0.057158,0.0796 0.1105308,0.167472 0.1714857,0.238752 0.034903,0.04083 0.075677,0.06553 0.1143271,0.09549 2.0427709,1.584536 0.8293353,0.720704 2.6008798,1.81451 1.569339,0.968959 1.69739,1.132874 3.40115,2.005512 0.647737,0.331762 3.398532,1.588558 4.058514,1.862261 0.663943,0.275344 1.333786,0.509337 2.000677,0.764006 0.666893,0.254669 1.333821,0.509081 2.000677,0.764004 0.457298,0.175087 0.914595,0.35017 1.371893,0.525254 0.3525,0.175087 0.699652,0.383656 1.057501,0.525252 0.367329,0.145357 0.744302,0.212243 1.114662,0.334253 0.545683,0.17976 1.219078,0.473481 1.772027,0.620753 1.335269,0.286004 0.745608,0.131524 1.772029,0.429756 0.219121,0.06365 0.438243,0.12733 0.657365,0.190984 0.304865,0.111412 0.607215,0.244162 0.914595,0.334257 0.236276,0.06925 0.475832,0.103379 0.714527,0.143249 0.0474,0.0079 0.09533,-0.0044 0.142906,0 0.133533,0.01168 0.266921,0.02844 0.400136,0.04776 0.08594,0.01252 0.171056,0.04089 0.25723,0.04776 0.11419,0.0092 0.228733,-0.0073 0.342973,0 0.133617,0.0086 0.266495,0.04002 0.400133,0.04776 0.142822,0.0081 0.28581,0 0.428716,0 0.123856,0 0.247706,0 0.371556,0 0.114327,0 0.228741,0.0077 0.342973,0 0.124118,-0.0083 0.247453,-0.03874 0.371552,-0.04776 0.09518,-0.0069 0.190541,0 0.285812,0 0.266757,0 0.533517,0 0.800273,0 0.265132,0 0.901818,-0.01669 1.171823,0.04776 0.279302,0.06666 0.551828,0.197182 0.828853,0.286501 0.266066,0.08579 0.535747,0.140536 0.80027,0.238751 0.250414,0.09297 0.494512,0.228533 0.743109,0.334251 0.909876,0.386946 0.708872,0.293681 1.600539,0.573007 0.285884,0.08955 0.727854,0.229461 1.028921,0.33425 0.248603,0.08652 0.193414,0.09549 0.371556,0.09549"
       id="path5" />
    <path
       style="fill:none;stroke:#ffffff;stroke-width:3;stroke-linecap:butt;stroke-linejoin:miter;stroke-dasharray:none;stroke-opacity:1"
       d="m 13.561908,7.7033586 c 0.08996,0.067535 0.201302,0.1133725 0.269851,0.202585 0.447369,0.5821532 0.573109,1.1388217 0.877017,1.8232877 0.424858,0.9568727 0.934544,1.8748957 1.349254,2.8362207 0.200343,0.464395 0.340638,0.95317 0.539704,1.418112 0.206033,0.48123 0.451087,0.944774 0.674627,1.418111 0.361139,0.764699 0.714823,1.53293 1.079405,2.295991 0.130165,0.272445 0.285542,0.532934 0.404776,0.810348 1.068401,2.485751 1.907752,4.715379 3.035826,7.090558 0.323847,0.681864 0.647577,1.364813 1.011943,2.025873 0.407248,0.738863 2.297169,3.72421 2.631047,4.254332 0.156365,0.248274 0.328495,0.487022 0.472241,0.742823 0.463698,0.825158 0.882956,1.674886 1.349256,2.498578 0.298517,0.527314 0.64938,1.023926 0.944478,1.553166 0.245067,0.439509 0.395704,0.931788 0.674629,1.350586 0.220685,0.331353 0.551889,0.574442 0.809553,0.877873 0.125287,0.147547 0.224878,0.31514 0.337315,0.472708 0.112428,0.157561 0.239841,0.305446 0.337314,0.472701 0.06101,0.104714 0.07074,0.234854 0.134917,0.337651 0.05056,0.08097 0.146944,0.124868 0.202386,0.202585 0.05844,0.08191 0.08608,0.182118 0.134917,0.270118 0.06368,0.114729 0.137335,0.223687 0.202386,0.337645 0.02495,0.04373 0.03823,0.0941 0.06747,0.135071 0.08368,0.117274 0.189985,0.217721 0.269851,0.337645 0.01251,0.01878 -0.01,0.04742 0,0.06753 0.03627,0.07258 0.09469,0.132108 0.134917,0.202585 0.0499,0.0874 0.06947,0.193676 0.134917,0.270118 0.07318,0.08546 0.195154,0.118464 0.269851,0.202585 0.215467,0.242637 0.332076,0.560952 0.539702,0.810353 0.383084,0.460154 0.311757,0.305071 0.674629,0.607755 0.04886,0.04075 0.08994,0.09005 0.134917,0.13507 0.202386,0.157562 0.405553,0.31414 0.607164,0.472701 0.113219,0.08905 0.244304,0.160086 0.337314,0.270118 0.157114,0.185874 0.266974,0.407127 0.404778,0.607762 0.258312,0.376098 0.520784,0.724711 0.809552,1.080468 0.130749,0.161067 0.276688,0.309521 0.404776,0.472701 0.119515,0.152262 0.214817,0.322841 0.337316,0.472708 0.08056,0.09856 0.196904,0.165802 0.269851,0.270111 0.0865,0.1237 0.124766,0.2757 0.202386,0.405179 0.05784,0.09651 0.137918,0.177903 0.202386,0.270118 0.284931,0.407442 0.222575,0.310524 0.404776,0.67529"
       id="path6" />
  </g>
</svg>
