<?xml version="1.0" encoding="UTF-8" standalone="no"?>
<!-- Created with Inkscape (http://www.inkscape.org/) -->

<svg
   width="80mm"
   height="80mm"
   viewBox="0 0 80 80"
   version="1.1"
   id="svg1"
   inkscape:version="1.3.2 (091e20e, 2023-11-25, custom)"
   sodipodi:docname="button_a_pressed.svg"
   xmlns:inkscape="http://www.inkscape.org/namespaces/inkscape"
   xmlns:sodipodi="http://sodipodi.sourceforge.net/DTD/sodipodi-0.dtd"
   xmlns="http://www.w3.org/2000/svg"
   xmlns:svg="http://www.w3.org/2000/svg">
  <sodipodi:namedview
     id="namedview1"
     pagecolor="#ffffff"
     bordercolor="#111111"
     borderopacity="1"
     inkscape:showpageshadow="0"
     inkscape:pageopacity="0"
     inkscape:pagecheckerboard="1"
     inkscape:deskcolor="#d1d1d1"
     inkscape:document-units="mm"
     inkscape:zoom="2.0436167"
     inkscape:cx="107.65228"
     inkscape:cy="163.6804"
     inkscape:window-width="2560"
     inkscape:window-height="1361"
     inkscape:window-x="2391"
     inkscape:window-y="-9"
     inkscape:window-maximized="1"
     inkscape:current-layer="layer1" />
  <defs
     id="defs1" />
  <g
     inkscape:label="Ebene 1"
     inkscape:groupmode="layer"
     id="layer1">
    <circle
       style="fill:#e2caab;fill-opacity:1;stroke:#dba355;stroke-width:5.29166;stroke-linecap:round;stroke-linejoin:round;stroke-dasharray:none;stroke-opacity:1;paint-order:markers fill stroke"
       id="path1"
       cx="40"
       cy="40"
       r="37.354172" />
    <text
       xml:space="preserve"
       style="font-style:normal;font-variant:normal;font-weight:normal;font-stretch:normal;font-size:42.6531px;line-height:1.25;font-family:'Cascadia Code';-inkscape-font-specification:'Cascadia Code';letter-spacing:0px;word-spacing:0px;fill:#000000;fill-opacity:1;stroke:none;stroke-width:0.264583"
       x="34.763123"
       y="44.119614"
       id="text1"
       transform="scale(0.98442238,1.0158241)"><tspan
         sodipodi:role="line"
         id="tspan1"
         style="font-style:normal;font-variant:normal;font-weight:normal;font-stretch:normal;font-family:'Cascadia Code';-inkscape-font-specification:'Cascadia Code';stroke-width:0.264583"
         x="34.763123"
         y="44.119614" /></text>
    <path
       d="m 42.300034,41.924518 q 0,-0.751031 -1.408184,-5.06946 -1.408183,-4.31843 -1.783699,-4.693945 h -0.09388 q -0.469394,0 -1.220425,4.130671 -0.751032,4.036793 -0.751032,5.538855 0,0.657152 2.816367,0.84491 1.502063,0.187758 1.68982,0.187758 0.751032,0 0.751032,-0.938789 z M 36.385663,14.042485 q 0.657152,-0.281637 1.68982,-0.281637 1.971457,0 3.004125,1.032668 1.220426,1.220426 4.600066,10.514437 3.473519,9.200132 5.163339,15.959413 4.224551,16.710444 4.224551,20.559479 0,1.314304 -1.314305,2.346972 -1.314304,1.032668 -2.722488,1.032668 -0.09388,0 -0.281636,0 -0.187758,-0.09388 -0.281637,-0.09388 -1.595941,-0.281637 -2.53473,-1.68982 -0.938789,-1.502063 -1.595942,-4.693945 -0.187758,-0.84491 -0.469394,-2.065336 -0.281637,-1.314304 -0.469395,-2.159215 -0.187757,-0.938789 -0.281636,-1.314304 l -0.469395,-1.68982 -3.849035,-0.281637 q -3.098003,-0.281637 -4.787824,-0.563273 -0.09388,0 -0.187757,0 -0.09388,-0.09388 -0.187758,-0.09388 -0.657152,0 -1.220426,3.661277 -1.314304,9.38789 -2.628609,10.889952 -1.126547,1.126547 -2.816367,1.126547 -2.910246,0 -3.942914,-2.628609 -0.09388,-0.187758 -0.09388,-1.032668 0,-5.820492 5.069461,-29.85349 2.065336,-9.575648 2.722488,-12.204257 0.657152,-2.722488 1.595941,-4.130671 1.408184,-2.159215 2.065336,-2.346973 z"
       id="text3"
       style="font-size:93.8789px;line-height:1.25;font-family:Shaabyla;-inkscape-font-specification:Shaabyla;letter-spacing:0px;word-spacing:0px;fill:#dba355;stroke-width:0.264583"
       aria-label="A" />
  </g>
</svg>
