<?xml version="1.0" encoding="UTF-8" standalone="no"?>
<!-- Created with Inkscape (http://www.inkscape.org/) -->

<svg
   width="80mm"
   height="80mm"
   viewBox="0 0 80 80"
   version="1.1"
   id="svg1"
   inkscape:version="1.3.2 (091e20e, 2023-11-25, custom)"
   sodipodi:docname="button_b.svg"
   xmlns:inkscape="http://www.inkscape.org/namespaces/inkscape"
   xmlns:sodipodi="http://sodipodi.sourceforge.net/DTD/sodipodi-0.dtd"
   xmlns="http://www.w3.org/2000/svg"
   xmlns:svg="http://www.w3.org/2000/svg">
  <sodipodi:namedview
     id="namedview1"
     pagecolor="#ffffff"
     bordercolor="#111111"
     borderopacity="1"
     inkscape:showpageshadow="0"
     inkscape:pageopacity="0"
     inkscape:pagecheckerboard="1"
     inkscape:deskcolor="#d1d1d1"
     inkscape:document-units="mm"
     inkscape:zoom="1.4142136"
     inkscape:cx="77.781747"
     inkscape:cy="174.30182"
     inkscape:window-width="2560"
     inkscape:window-height="1361"
     inkscape:window-x="2391"
     inkscape:window-y="-9"
     inkscape:window-maximized="1"
     inkscape:current-layer="layer1" />
  <defs
     id="defs1" />
  <g
     inkscape:label="Ebene 1"
     inkscape:groupmode="layer"
     id="layer1">
    <circle
       style="fill:#e9c5b2;fill-opacity:1;stroke:#cf855d;stroke-width:5.29166;stroke-linecap:round;stroke-linejoin:round;stroke-dasharray:none;stroke-opacity:1;paint-order:markers fill stroke"
       id="path1"
       cx="40"
       cy="40"
       r="37.354172" />
    <path
       d="m 40.140818,44.600064 q -1.689821,-1.126547 -2.440852,-1.126547 -0.469394,0 -0.657152,0.563274 -0.09388,0.375515 -0.469395,7.416433 l -0.281636,6.853159 h 1.314304 q 1.314305,0 2.816367,-0.938789 1.595942,-1.032668 2.440852,-2.346972 0.84491,-1.408184 0.84491,-3.379641 0,-4.693945 -3.567398,-7.040917 z m 0.375515,-17.461475 q 0,-2.53473 -1.220425,-4.036793 -1.220426,-1.502062 -1.689821,-1.502062 -0.84491,0 -0.84491,6.196007 l 0.09388,6.102129 1.783699,-1.971457 q 1.314305,-1.408184 1.595942,-2.159215 0.281636,-0.751031 0.281636,-2.628609 z M 29.814139,15.591484 q 2.722488,-2.253093 6.947038,-2.253093 h 0.09388 q 5.257218,0 8.730738,4.130671 3.473519,4.130672 3.473519,9.669527 0,4.412308 -2.253094,7.979706 l -1.502062,2.53473 2.253094,2.440852 q 2.346972,2.440851 3.285761,4.787824 1.032668,2.346972 1.220426,5.91437 0,0.469395 0,1.126547 0.09388,0.657152 0.09388,0.938789 0,1.783699 -1.408184,4.693945 -1.314304,2.722488 -3.849035,5.163339 -2.440851,2.440852 -4.787824,3.191883 -2.065335,0.751031 -6.008249,0.751031 -3.849035,0 -5.351097,-1.032668 -1.783699,-1.126547 -2.346973,-2.253093 -0.563273,-1.126547 -0.563273,-3.661277 0,-0.751032 0.187758,-4.130672 0.375515,-6.947038 0.375515,-22.530936 v -16.14717 z"
       id="text3"
       style="font-size:93.8789px;line-height:1.25;font-family:Shaabyla;-inkscape-font-specification:Shaabyla;letter-spacing:0px;word-spacing:0px;fill:#cf855d;stroke-width:0.264583"
       aria-label="B" />
    <text
       xml:space="preserve"
       style="font-style:normal;font-variant:normal;font-weight:normal;font-stretch:normal;font-size:42.6531px;line-height:1.25;font-family:'Cascadia Code';-inkscape-font-specification:'Cascadia Code';letter-spacing:0px;word-spacing:0px;fill:#000000;fill-opacity:1;stroke:none;stroke-width:0.264583"
       x="34.763123"
       y="44.119614"
       id="text1"
       transform="scale(0.98442238,1.0158241)"><tspan
         sodipodi:role="line"
         id="tspan1"
         style="font-style:normal;font-variant:normal;font-weight:normal;font-stretch:normal;font-family:'Cascadia Code';-inkscape-font-specification:'Cascadia Code';stroke-width:0.264583"
         x="34.763123"
         y="44.119614" /></text>
  </g>
</svg>
